<mxfile host="Electron" agent="Mozilla/5.0 (Macintosh; Intel Mac OS X 10_15_7) AppleWebKit/537.36 (KHTML, like Gecko) draw.io/26.0.4 Chrome/128.0.6613.186 Electron/32.2.5 Safari/537.36" version="26.0.4">
  <diagram id="C5RBs43oDa-KdzZeNtuy" name="Page-1">
    <mxGraphModel dx="1366" dy="813" grid="1" gridSize="10" guides="1" tooltips="1" connect="1" arrows="1" fold="1" page="1" pageScale="1" pageWidth="827" pageHeight="1169" math="0" shadow="0">
      <root>
        <mxCell id="WIyWlLk6GJQsqaUBKTNV-0" />
        <mxCell id="WIyWlLk6GJQsqaUBKTNV-1" parent="WIyWlLk6GJQsqaUBKTNV-0" />
        <mxCell id="Q2JHpyXK3tvcLyVBupTh-1" value="GET /user/" style="swimlane;swimlaneLine=1;glass=0;shadow=0;rounded=0;sketch=0;swimlaneFillColor=#FFE6CC;gradientColor=none;startSize=30;" parent="WIyWlLk6GJQsqaUBKTNV-1" vertex="1">
          <mxGeometry x="200" y="30" width="460" height="680" as="geometry">
            <mxRectangle x="100" y="70" width="100" height="30" as="alternateBounds" />
          </mxGeometry>
        </mxCell>
        <mxCell id="Q2JHpyXK3tvcLyVBupTh-2" value="Client" style="swimlane;html=1;horizontal=0;swimlaneLine=0;fillColor=#f5f5f5;strokeColor=#666666;fontColor=#333333;" parent="Q2JHpyXK3tvcLyVBupTh-1" vertex="1">
          <mxGeometry y="30" width="460" height="120" as="geometry">
            <mxRectangle x="260" y="330" width="30" height="50" as="alternateBounds" />
          </mxGeometry>
        </mxCell>
        <mxCell id="Q2JHpyXK3tvcLyVBupTh-7" value="Request" style="strokeWidth=2;html=1;shape=mxgraph.flowchart.start_1;whiteSpace=wrap;" parent="Q2JHpyXK3tvcLyVBupTh-2" vertex="1">
          <mxGeometry x="40" y="25" width="100" height="70" as="geometry" />
        </mxCell>
        <mxCell id="Q2JHpyXK3tvcLyVBupTh-10" value="401: Unauthorised" style="strokeWidth=2;html=1;shape=mxgraph.flowchart.terminator;whiteSpace=wrap;" parent="Q2JHpyXK3tvcLyVBupTh-2" vertex="1">
          <mxGeometry x="190" y="30" width="100" height="60" as="geometry" />
        </mxCell>
        <mxCell id="ZfSD3USpCY6e5y5g9DAe-16" value="200: Response" style="strokeWidth=2;html=1;shape=mxgraph.flowchart.terminator;whiteSpace=wrap;" parent="Q2JHpyXK3tvcLyVBupTh-2" vertex="1">
          <mxGeometry x="330" y="30" width="100" height="60" as="geometry" />
        </mxCell>
        <mxCell id="Q2JHpyXK3tvcLyVBupTh-4" value="Authorization" style="swimlane;html=1;horizontal=0;swimlaneLine=0;fillColor=#f5f5f5;fontColor=#333333;" parent="Q2JHpyXK3tvcLyVBupTh-1" vertex="1">
          <mxGeometry y="150" width="460" height="130" as="geometry">
            <mxRectangle x="260" y="330" width="30" height="50" as="alternateBounds" />
          </mxGeometry>
        </mxCell>
        <mxCell id="Q2JHpyXK3tvcLyVBupTh-12" value="&amp;nbsp;NO&amp;nbsp;" style="edgeStyle=orthogonalEdgeStyle;rounded=0;orthogonalLoop=1;jettySize=auto;html=1;entryX=0;entryY=0.5;entryDx=0;entryDy=0;" parent="Q2JHpyXK3tvcLyVBupTh-4" source="Q2JHpyXK3tvcLyVBupTh-8" target="Q2JHpyXK3tvcLyVBupTh-11" edge="1">
          <mxGeometry relative="1" as="geometry" />
        </mxCell>
        <mxCell id="Q2JHpyXK3tvcLyVBupTh-8" value="Authorized?" style="strokeWidth=2;html=1;shape=mxgraph.flowchart.decision;whiteSpace=wrap;" parent="Q2JHpyXK3tvcLyVBupTh-4" vertex="1">
          <mxGeometry x="40" y="10" width="100" height="100" as="geometry" />
        </mxCell>
        <mxCell id="Q2JHpyXK3tvcLyVBupTh-11" value="Invalid Access Token" style="rounded=1;whiteSpace=wrap;html=1;absoluteArcSize=1;arcSize=14;strokeWidth=2;" parent="Q2JHpyXK3tvcLyVBupTh-4" vertex="1">
          <mxGeometry x="190" y="25" width="100" height="70" as="geometry" />
        </mxCell>
        <mxCell id="Q2JHpyXK3tvcLyVBupTh-5" value="API Endpoint" style="swimlane;html=1;horizontal=0;swimlaneLine=0;fillColor=#f5f5f5;fontColor=#333333;" parent="Q2JHpyXK3tvcLyVBupTh-1" vertex="1">
          <mxGeometry y="280" width="460" height="150" as="geometry">
            <mxRectangle x="260" y="330" width="30" height="50" as="alternateBounds" />
          </mxGeometry>
        </mxCell>
        <mxCell id="ZfSD3USpCY6e5y5g9DAe-14" value="Prepare&lt;br&gt;success&lt;br&gt;response" style="rounded=1;whiteSpace=wrap;html=1;absoluteArcSize=1;arcSize=14;strokeWidth=2;shadow=0;glass=0;sketch=0;gradientColor=none;" parent="Q2JHpyXK3tvcLyVBupTh-5" vertex="1">
          <mxGeometry x="345" y="40" width="70" height="75" as="geometry" />
        </mxCell>
        <mxCell id="Q2JHpyXK3tvcLyVBupTh-9" style="edgeStyle=orthogonalEdgeStyle;rounded=0;orthogonalLoop=1;jettySize=auto;html=1;entryX=0.5;entryY=0;entryDx=0;entryDy=0;entryPerimeter=0;" parent="Q2JHpyXK3tvcLyVBupTh-1" source="Q2JHpyXK3tvcLyVBupTh-7" target="Q2JHpyXK3tvcLyVBupTh-8" edge="1">
          <mxGeometry relative="1" as="geometry" />
        </mxCell>
        <mxCell id="Q2JHpyXK3tvcLyVBupTh-13" style="edgeStyle=orthogonalEdgeStyle;rounded=0;orthogonalLoop=1;jettySize=auto;html=1;entryX=0.5;entryY=1;entryDx=0;entryDy=0;entryPerimeter=0;" parent="Q2JHpyXK3tvcLyVBupTh-1" source="Q2JHpyXK3tvcLyVBupTh-11" target="Q2JHpyXK3tvcLyVBupTh-10" edge="1">
          <mxGeometry relative="1" as="geometry" />
        </mxCell>
        <mxCell id="Q2JHpyXK3tvcLyVBupTh-6" value="Data Access Layer" style="swimlane;html=1;horizontal=0;swimlaneLine=0;startSize=23;fillColor=#f5f5f5;fontColor=#333333;" parent="Q2JHpyXK3tvcLyVBupTh-1" vertex="1">
          <mxGeometry y="430" width="460" height="130" as="geometry">
            <mxRectangle y="430" width="30" height="50" as="alternateBounds" />
          </mxGeometry>
        </mxCell>
        <mxCell id="Q2JHpyXK3tvcLyVBupTh-17" value="Query Account Details" style="rounded=1;whiteSpace=wrap;html=1;absoluteArcSize=1;arcSize=14;strokeWidth=2;shadow=0;glass=0;sketch=0;gradientColor=none;" parent="Q2JHpyXK3tvcLyVBupTh-6" vertex="1">
          <mxGeometry x="210" y="27.5" width="70" height="75" as="geometry" />
        </mxCell>
        <mxCell id="ZfSD3USpCY6e5y5g9DAe-1" value="Database" style="swimlane;html=1;horizontal=0;swimlaneLine=0;startSize=23;fillColor=#f5f5f5;fontColor=#333333;" parent="Q2JHpyXK3tvcLyVBupTh-1" vertex="1">
          <mxGeometry y="560" width="460" height="120" as="geometry">
            <mxRectangle x="260" y="330" width="30" height="50" as="alternateBounds" />
          </mxGeometry>
        </mxCell>
        <mxCell id="ZfSD3USpCY6e5y5g9DAe-2" value="&lt;br&gt;DB" style="strokeWidth=2;html=1;shape=mxgraph.flowchart.database;whiteSpace=wrap;rounded=0;shadow=0;glass=0;sketch=0;gradientColor=none;" parent="ZfSD3USpCY6e5y5g9DAe-1" vertex="1">
          <mxGeometry x="215" y="20" width="60" height="80" as="geometry" />
        </mxCell>
        <mxCell id="ZfSD3USpCY6e5y5g9DAe-6" style="edgeStyle=orthogonalEdgeStyle;rounded=0;orthogonalLoop=1;jettySize=auto;html=1;" parent="Q2JHpyXK3tvcLyVBupTh-1" source="Q2JHpyXK3tvcLyVBupTh-17" target="ZfSD3USpCY6e5y5g9DAe-2" edge="1">
          <mxGeometry relative="1" as="geometry" />
        </mxCell>
        <mxCell id="ZfSD3USpCY6e5y5g9DAe-17" style="edgeStyle=orthogonalEdgeStyle;rounded=0;orthogonalLoop=1;jettySize=auto;html=1;entryX=0.5;entryY=1;entryDx=0;entryDy=0;entryPerimeter=0;" parent="Q2JHpyXK3tvcLyVBupTh-1" source="ZfSD3USpCY6e5y5g9DAe-14" target="ZfSD3USpCY6e5y5g9DAe-16" edge="1">
          <mxGeometry relative="1" as="geometry" />
        </mxCell>
        <mxCell id="KsU-oVDJiNAYJk19QjAR-0" style="edgeStyle=orthogonalEdgeStyle;rounded=0;orthogonalLoop=1;jettySize=auto;html=1;entryX=0;entryY=0.5;entryDx=0;entryDy=0;exitX=0.5;exitY=1;exitDx=0;exitDy=0;exitPerimeter=0;" edge="1" parent="Q2JHpyXK3tvcLyVBupTh-1" source="Q2JHpyXK3tvcLyVBupTh-8" target="Q2JHpyXK3tvcLyVBupTh-17">
          <mxGeometry relative="1" as="geometry">
            <mxPoint x="90" y="500" as="targetPoint" />
          </mxGeometry>
        </mxCell>
        <mxCell id="KsU-oVDJiNAYJk19QjAR-1" value="YES" style="edgeLabel;html=1;align=center;verticalAlign=middle;resizable=0;points=[];" vertex="1" connectable="0" parent="KsU-oVDJiNAYJk19QjAR-0">
          <mxGeometry x="-0.608" y="-1" relative="1" as="geometry">
            <mxPoint as="offset" />
          </mxGeometry>
        </mxCell>
        <mxCell id="KsU-oVDJiNAYJk19QjAR-2" style="edgeStyle=orthogonalEdgeStyle;rounded=0;orthogonalLoop=1;jettySize=auto;html=1;entryX=0.5;entryY=1;entryDx=0;entryDy=0;" edge="1" parent="Q2JHpyXK3tvcLyVBupTh-1" source="Q2JHpyXK3tvcLyVBupTh-17" target="ZfSD3USpCY6e5y5g9DAe-14">
          <mxGeometry relative="1" as="geometry" />
        </mxCell>
      </root>
    </mxGraphModel>
  </diagram>
</mxfile>
